<svg width="691" height="692" xmlns="http://www.w3.org/2000/svg" xmlns:xlink="http://www.w3.org/1999/xlink" overflow="hidden"><defs><clipPath id="clip0"><rect x="185" y="14" width="691" height="692"/></clipPath></defs><g clip-path="url(#clip0)" transform="translate(-185 -14)"><path d="M562.877 344.78C560.718 344.78 557.839 344.78 555.679 344.78 555.679 344.78 555.679 344.78 555.679 344.78 555.679 309.51 538.404 277.12 510.332 256.966 481.541 236.811 444.831 231.773 411.721 243.29 384.369 190.025 323.906 162.673 266.323 176.349 208.74 190.025 166.992 241.85 166.992 301.593 166.992 301.593 166.992 302.312 166.992 303.032 127.403 296.554 87.8146 313.109 63.3417 344.78 39.5885 377.171 35.2698 419.639 51.825 455.628 69.1 491.618 105.09 515.371 144.678 517.53L144.678 518.25 562.157 518.25C609.664 518.25 648.532 479.381 648.532 431.875 648.532 384.369 610.383 344.78 562.877 344.78Z" fill="#F2F2F2" transform="matrix(1 0 0 1.00145 185 14)"/></g></svg>